<?xml version="1.0" standalone="no"?>
<!DOCTYPE svg PUBLIC "-//W3C//DTD SVG 20010904//EN"
 "http://www.w3.org/TR/2001/REC-SVG-20010904/DTD/svg10.dtd">
<svg version="1.0" xmlns="http://www.w3.org/2000/svg"
 width="700.000000pt" height="700.000000pt" viewBox="0 0 700.000000 700.000000"
 preserveAspectRatio="xMidYMid meet">
<metadata>
Created by potrace 1.14, written by Peter Selinger 2001-2017
</metadata>
<g transform="translate(0.000000,700.000000) scale(0.100000,-0.100000)"
fill="#000000" stroke="none">
<path d="M3435 6115 c-28 -6 -583 -278 -1243 -608 -1287 -645 -1246 -622
-1294 -726 -14 -31 -21 -67 -21 -113 0 -57 5 -77 32 -130 20 -40 47 -75 74
-95 24 -18 182 -101 351 -186 l309 -154 -44 -25 c-24 -14 -69 -39 -99 -56 -30
-16 -95 -53 -143 -81 -49 -28 -90 -51 -92 -51 -8 0 -254 -145 -283 -167 -136
-102 -140 -325 -9 -440 19 -16 176 -101 351 -188 174 -87 315 -159 313 -161
-7 -7 -591 -334 -597 -334 -3 0 -31 -22 -62 -50 -64 -57 -96 -122 -101 -202
-6 -94 42 -196 117 -248 48 -33 2365 -1192 2416 -1209 45 -14 104 -17 154 -7
44 8 2402 1184 2452 1222 100 76 135 229 81 347 -41 89 -56 100 -497 347 -47
26 -103 58 -125 70 -22 13 -57 32 -77 43 -21 11 -36 22 -35 23 2 2 148 76 325
164 353 177 384 200 416 298 31 97 27 153 -17 241 -31 62 -72 93 -288 215
-107 60 -250 141 -318 179 l-123 69 322 162 c217 108 334 172 357 196 69 69
100 174 80 270 -12 59 -67 141 -116 173 -65 43 -2393 1204 -2431 1212 -57 13
-82 13 -135 0z m908 -1030 l838 -418 -840 -421 -840 -420 -841 420 -840 420
837 420 c461 231 840 419 843 419 3 -1 382 -190 843 -420z m-876 -1871 c33 -4
77 -1 103 6 25 6 295 137 601 289 l556 278 242 -136 242 -136 -856 -427 -855
-428 -856 428 -855 428 78 43 c43 24 101 57 128 72 28 15 101 57 164 92 l114
65 568 -284 c490 -245 577 -285 626 -290z m-618 -881 l576 -288 76 1 76 0 575
287 575 287 149 -83 c82 -46 176 -99 209 -117 102 -56 115 -64 113 -72 -2 -4
-384 -198 -850 -431 l-847 -424 -848 424 c-466 233 -849 427 -850 431 -3 7 22
23 117 74 30 16 120 67 200 113 80 46 147 83 149 84 3 1 264 -128 580 -286z"/>
</g>
</svg>
